<svg width="272" height="262" viewBox="0 0 272 262" fill="none" xmlns="http://www.w3.org/2000/svg">
<path d="M30.4436 117.25L31.2107 114.077L24.2756 112.43L26.0917 104.918L33.0268 106.566L33.7939 103.393L16.9816 99.3997L16.2145 102.572L23.1262 104.214L21.3101 111.726L14.3984 110.084L13.6313 113.256L30.4436 117.25Z" fill="white"/>
<path d="M41.9632 84.5018C42.7907 82.9848 43.1719 81.5009 43.1067 80.0501C43.0454 78.5923 42.5798 77.2491 41.71 76.0206C40.844 74.785 39.6212 73.744 38.0418 72.8975C36.4623 72.051 34.9139 71.607 33.3966 71.5653C31.8831 71.5166 30.4942 71.8659 29.2299 72.6133C27.9694 73.3537 26.9254 74.4823 26.0979 75.9993C25.2703 77.5163 24.8872 79.0037 24.9486 80.4615C25.0137 81.9123 25.4793 83.2555 26.3453 84.4911C27.2151 85.7196 28.4398 86.7571 30.0193 87.6036C31.5988 88.4501 33.1452 88.8976 34.6587 88.9464C36.176 88.988 37.5649 88.6387 38.8254 87.8983C40.0897 87.1509 41.1356 86.0187 41.9632 84.5018ZM39.2555 83.0507C38.449 84.4791 37.3795 85.3036 36.047 85.5244C34.7184 85.7382 33.2609 85.4199 31.6744 84.5697C30.0878 83.7194 29.0105 82.6792 28.4423 81.4489C27.8779 80.2116 27.999 78.8788 28.8056 77.4504C29.6159 76.015 30.6854 75.1904 32.014 74.9767C33.3426 74.7629 34.8002 75.0812 36.3867 75.9314C37.9732 76.7817 39.0506 77.8219 39.6188 79.0522C40.187 80.2825 40.0659 81.6153 39.2555 83.0507Z" fill="white"/>
<path d="M53.3283 66.3357L60.4891 58.3797L58.2057 56.3607L53.2284 61.8906L42.5666 52.4633L40.383 54.8894L53.3283 66.3357Z" fill="white"/>
<path d="M68.2166 51.0019L72.7969 47.794C72.9083 47.716 73.1353 47.5521 73.478 47.3024C73.8206 47.0526 74.1386 46.7958 74.4318 46.5318C75.4745 45.5965 76.16 44.5255 76.4885 43.3188C76.817 42.112 76.8301 40.8625 76.5277 39.5702C76.2254 38.2779 75.6493 37.0358 74.7994 35.8437C73.9496 34.6516 72.9606 33.6985 71.8326 32.9845C70.7047 32.2704 69.512 31.8654 68.2547 31.7693C66.9975 31.6732 65.75 31.956 64.5123 32.6177C64.1633 32.8035 63.8129 33.0148 63.4609 33.2515C63.109 33.4882 62.8773 33.6456 62.7659 33.7236L58.1856 36.9315L68.2166 51.0019ZM69.1461 46.6006L62.6817 37.5329L64.5492 36.225C64.7261 36.1011 64.9676 35.9368 65.2737 35.7322C65.5798 35.5276 65.8726 35.3665 66.1522 35.2488C66.8321 34.9484 67.5242 34.8788 68.2285 35.0399C68.9328 35.201 69.6052 35.5309 70.2457 36.0297C70.8928 36.5239 71.4671 37.1227 71.9686 37.8262C72.447 38.4972 72.8163 39.2152 73.0768 39.9801C73.3438 40.7405 73.4409 41.4831 73.3682 42.2079C73.302 42.9281 73.005 43.5658 72.4773 44.121C72.2674 44.3364 72.0163 44.5562 71.7242 44.7803C71.4274 44.9979 71.1906 45.1687 71.0136 45.2926L69.1461 46.6006Z" fill="white"/>
<path d="M106.57 30.8179L109.721 29.9669L105.949 16.244L111.208 14.8236L110.4 11.8846L96.7302 15.5764L97.5381 18.5154L102.798 17.095L106.57 30.8179Z" fill="white"/>
<path d="M133.594 26.6495C135.322 26.6115 136.801 26.203 138.032 25.4237C139.271 24.6443 140.211 23.5714 140.853 22.205C141.502 20.8384 141.807 19.2593 141.767 17.4677C141.727 15.6762 141.352 14.1121 140.642 12.7753C139.94 11.4384 138.953 10.4079 137.68 9.68366C136.416 8.95926 134.92 8.61605 133.192 8.65401C131.464 8.69198 129.981 9.10066 128.742 9.88007C127.511 10.6593 126.571 11.7322 125.922 13.0988C125.28 14.4652 124.979 16.0442 125.019 17.8358C125.059 19.6273 125.43 21.1916 126.132 22.5285C126.843 23.8652 127.83 24.8957 129.094 25.6201C130.367 26.3443 131.867 26.6875 133.594 26.6495ZM133.526 23.5783C131.886 23.5903 130.642 23.0735 129.794 22.0279C128.955 20.9821 128.515 19.5594 128.474 17.7599C128.434 15.9603 128.81 14.5077 129.601 13.402C130.401 12.2962 131.62 11.7373 133.261 11.7252C134.909 11.713 136.153 12.2298 136.992 13.2756C137.832 14.3214 138.272 15.7441 138.312 17.5437C138.352 19.3432 137.977 20.7958 137.185 21.9015C136.394 23.0071 135.174 23.5661 133.526 23.5783Z" fill="white"/>
<path d="M166.862 29.9859L169.989 30.9232L175.033 14.3956L171.906 13.4583L166.862 29.9859Z" fill="white"/>
<path d="M187.781 38.4504C189.25 39.2328 190.696 39.5953 192.119 39.538C193.547 39.4736 194.862 39.0368 196.065 38.2276C197.268 37.4184 198.265 36.2859 199.054 34.8302C199.073 34.7951 199.142 34.6596 199.261 34.4237C199.38 34.1879 199.457 34.0205 199.492 33.9216L194.007 30.9987L192.805 33.2139L195.22 34.5004C194.335 35.5788 193.392 36.2096 192.392 36.3928C191.398 36.5797 190.413 36.3992 189.436 35.8515C188 35.0593 187.172 34.0018 186.952 32.679C186.739 31.36 187.062 29.9094 187.92 28.3271C188.778 26.7448 189.827 25.6673 191.066 25.0946C192.312 24.5257 193.653 24.6373 195.088 25.4295C196.059 25.9557 196.71 26.6515 197.041 27.517C197.384 28.3792 197.452 29.3267 197.247 30.3595L200.42 31.5062C200.939 29.6434 200.883 27.9594 200.252 26.4541C199.622 24.9488 198.325 23.6733 196.362 22.6276C195.035 21.9204 193.656 21.5846 192.226 21.6204C190.803 21.66 189.447 22.0974 188.157 22.9328C186.877 23.7649 185.782 25.0213 184.87 26.702C184.172 27.989 183.747 29.2262 183.594 30.4139C183.449 31.6053 183.526 32.7119 183.828 33.7336C184.136 34.759 184.631 35.6753 185.313 36.4826C185.998 37.2829 186.821 37.9388 187.781 38.4504Z" fill="white"/>
<path d="M205.403 48.7594L207.84 51.0017L215.715 42.593L213.369 56.0876L215.806 58.3299L227.618 45.7168L225.18 43.4745L217.306 51.8832L219.652 38.3886L217.214 36.1462L205.403 48.7594Z" fill="white"/>
<path d="M224.694 68.6003L226.61 71.2428L240.684 61.2175L238.768 58.575L224.694 68.6003Z" fill="white"/>
<path d="M235.07 84.9414L236.471 87.8894L249.366 81.8681L251.705 86.7886L254.467 85.4991L248.388 72.7101L245.626 73.9997L247.965 78.9202L235.07 84.9414Z" fill="white"/>
<path d="M242.663 103.337L245.129 114.344L248.106 113.688L246.353 105.867L250.689 104.912L252.127 111.329L255.104 110.673L253.666 104.256L257.275 103.462L259.028 111.284L262.005 110.628L259.538 99.6214L242.663 103.337Z" fill="white"/>
<path d="M245.667 143.821L244.772 146.961L251.635 148.883L249.516 156.316L242.653 154.394L241.758 157.533L258.395 162.193L259.29 159.054L252.45 157.138L254.569 149.705L261.409 151.621L262.304 148.481L245.667 143.821Z" fill="white"/>
<path d="M232.829 176.084C231.941 177.567 231.5 179.034 231.506 180.487C231.508 181.946 231.919 183.306 232.738 184.568C233.554 185.838 234.733 186.926 236.277 187.835C237.821 188.744 239.35 189.249 240.864 189.351C242.375 189.46 243.777 189.167 245.07 188.47C246.36 187.781 247.449 186.694 248.337 185.212C249.225 183.729 249.669 182.258 249.666 180.799C249.66 179.347 249.249 177.986 248.434 176.717C247.615 175.455 246.433 174.369 244.889 173.461C243.345 172.552 241.818 172.043 240.308 171.934C238.794 171.832 237.392 172.126 236.102 172.815C234.809 173.512 233.718 174.601 232.829 176.084ZM235.476 177.642C236.34 176.247 237.442 175.465 238.782 175.298C240.118 175.137 241.562 175.513 243.113 176.426C244.663 177.339 245.698 178.421 246.215 179.673C246.729 180.932 246.554 182.259 245.69 183.654C244.822 185.056 243.72 185.837 242.384 185.998C241.048 186.158 239.605 185.782 238.054 184.87C236.503 183.957 235.469 182.875 234.951 181.623C234.433 180.371 234.608 179.044 235.476 177.642Z" fill="white"/>
<path d="M220.737 193.783L213.259 201.447L215.459 203.556L220.656 198.228L230.927 208.073L233.208 205.736L220.737 193.783Z" fill="white"/>
<path d="M205.239 208.511L200.532 211.534C200.418 211.608 200.184 211.762 199.832 211.998C199.479 212.234 199.151 212.478 198.847 212.73C197.768 213.623 197.039 214.666 196.662 215.859C196.285 217.051 196.221 218.299 196.471 219.603C196.721 220.906 197.246 222.17 198.047 223.395C198.847 224.62 199.797 225.612 200.895 226.37C201.993 227.129 203.168 227.581 204.421 227.727C205.673 227.873 206.931 227.64 208.195 227.028C208.551 226.856 208.91 226.659 209.271 226.437C209.632 226.214 209.87 226.066 209.984 225.993L214.691 222.97L205.239 208.511ZM204.132 212.872L210.223 222.19L208.304 223.422C208.122 223.539 207.874 223.694 207.56 223.886C207.246 224.078 206.947 224.227 206.663 224.334C205.971 224.607 205.277 224.649 204.58 224.46C203.882 224.271 203.224 223.915 202.604 223.391C201.978 222.871 201.428 222.25 200.956 221.527C200.505 220.837 200.165 220.105 199.936 219.331C199.7 218.56 199.633 217.814 199.735 217.093C199.83 216.376 200.153 215.751 200.703 215.217C200.921 215.01 201.181 214.801 201.482 214.588C201.787 214.383 202.031 214.221 202.213 214.105L204.132 212.872Z" fill="white"/>
<path d="M166.098 227.151L162.915 227.876L166.128 241.738L160.815 242.948L161.503 245.917L175.312 242.772L174.624 239.804L169.311 241.013L166.098 227.151Z" fill="white"/>
<path d="M138.926 230.24C137.198 230.209 135.704 230.558 134.442 231.288C133.173 232.017 132.19 233.052 131.493 234.392C130.789 235.731 130.42 237.297 130.388 239.089C130.355 240.88 130.666 242.458 131.322 243.822C131.969 245.186 132.914 246.255 134.156 247.029C135.39 247.803 136.871 248.206 138.599 248.237C140.326 248.268 141.825 247.918 143.095 247.189C144.356 246.459 145.339 245.425 146.044 244.085C146.74 242.745 147.105 241.18 147.137 239.388C147.17 237.596 146.862 236.019 146.215 234.655C145.56 233.291 144.615 232.222 143.381 231.448C142.139 230.674 140.654 230.271 138.926 230.24ZM138.87 233.311C140.51 233.365 141.732 233.931 142.536 235.009C143.333 236.088 143.714 237.527 143.682 239.326C143.649 241.126 143.215 242.562 142.379 243.636C141.535 244.709 140.294 245.219 138.655 245.165C137.007 245.112 135.785 244.546 134.989 243.468C134.192 242.389 133.81 240.95 133.843 239.15C133.876 237.351 134.31 235.914 135.146 234.841C135.981 233.768 137.223 233.258 138.87 233.311Z" fill="white"/>
<path d="M105.82 225.581L102.734 224.52L97.0247 240.833L100.111 241.894L105.82 225.581Z" fill="white"/>
<path d="M85.2618 216.29C83.8261 215.45 82.396 215.03 80.9713 215.03C79.5425 215.038 78.2105 215.422 76.9754 216.183C75.7403 216.943 74.6988 218.035 73.8509 219.458C73.8304 219.492 73.7561 219.625 73.6278 219.856C73.4995 220.087 73.4157 220.251 73.3762 220.349L78.7393 223.488L80.0295 221.322L77.6689 219.94C78.5971 218.898 79.5647 218.305 80.5716 218.162C81.5716 218.015 82.5486 218.235 83.5026 218.821C84.9053 219.67 85.6897 220.759 85.8559 222.09C86.0151 223.416 85.634 224.853 84.7124 226.4C83.7908 227.946 82.6995 228.981 81.4384 229.504C80.1704 230.023 78.8351 229.858 77.4324 229.009C76.484 228.445 75.8617 227.724 75.5656 226.846C75.2585 225.97 75.2284 225.021 75.4753 223.997L72.3513 222.725C71.7574 224.566 71.745 226.25 72.3141 227.78C72.8832 229.309 74.1271 230.635 76.0459 231.758C77.3436 232.518 78.7075 232.908 80.1378 232.929C81.5612 232.946 82.9345 232.563 84.2576 231.78C85.5697 231 86.7152 229.788 87.6942 228.145C88.4437 226.887 88.9188 225.667 89.1196 224.487C89.3134 223.302 89.2804 222.193 89.0207 221.161C88.7541 220.124 88.2967 219.188 87.6484 218.355C86.996 217.528 86.2005 216.839 85.2618 216.29Z" fill="white"/>
<path d="M68.0724 205.287L65.7278 202.95L57.519 211.038L60.41 197.648L58.0654 195.31L45.7522 207.442L48.0968 209.78L56.3056 201.692L53.4146 215.082L55.7592 217.42L68.0724 205.287Z" fill="white"/>
<path d="M49.6018 184.694L47.7945 181.977L33.3248 191.434L35.132 194.15L49.6018 184.694Z" fill="white"/>
<path d="M39.8971 167.953L38.6166 164.951L25.4872 170.454L23.35 165.444L20.5381 166.623L26.0931 179.644L28.905 178.465L26.7677 173.455L39.8971 167.953Z" fill="white"/>
<path d="M33.0562 149.27L31.0378 138.173L28.0369 138.71L29.4712 146.595L25.0998 147.376L23.9231 140.907L20.9222 141.444L22.0989 147.912L18.46 148.563L17.0256 140.677L14.0247 141.214L16.0431 152.31L33.0562 149.27Z" fill="white"/>
</svg>
